<?xml version="1.0" encoding="UTF-8" standalone="no"?>
<!-- Created with Inkscape (http://www.inkscape.org/) -->

<svg
   xmlns:dc="http://purl.org/dc/elements/1.1/"
   xmlns:cc="http://creativecommons.org/ns#"
   xmlns:rdf="http://www.w3.org/1999/02/22-rdf-syntax-ns#"
   xmlns:svg="http://www.w3.org/2000/svg"
   xmlns="http://www.w3.org/2000/svg"
   xmlns:sodipodi="http://sodipodi.sourceforge.net/DTD/sodipodi-0.dtd"
   xmlns:inkscape="http://www.inkscape.org/namespaces/inkscape"
   width="141.73228"
   height="141.73228"
   id="svg2998"
   version="1.1"
   inkscape:version="0.48.5 r10040"
   viewBox="0 0 141.73228 141.73228"
   sodipodi:docname="birb.gcode">
  <defs
     id="defs3000" />
  <sodipodi:namedview
     id="base"
     pagecolor="#ffffff"
     bordercolor="#666666"
     borderopacity="1.0"
     inkscape:pageopacity="0.0"
     inkscape:pageshadow="2"
     inkscape:zoom="0.9899495"
     inkscape:cx="395.20264"
     inkscape:cy="137.5095"
     inkscape:document-units="mm"
     inkscape:current-layer="layer1"
     showgrid="false"
     units="mm"
     inkscape:window-width="1536"
     inkscape:window-height="801"
     inkscape:window-x="-8"
     inkscape:window-y="-8"
     inkscape:window-maximized="1" />
  <metadata
     id="metadata3003">
    <rdf:RDF>
      <cc:Work
         rdf:about="">
        <dc:format>image/svg+xml</dc:format>
        <dc:type
           rdf:resource="http://purl.org/dc/dcmitype/StillImage" />
        <dc:title></dc:title>
      </cc:Work>
    </rdf:RDF>
  </metadata>
  <g
     inkscape:label="Layer 1"
     inkscape:groupmode="layer"
     id="layer1"
     transform="translate(0,-910.62989)">
    <path
       style="fill:none;stroke:#000000;stroke-width:1.06863165;stroke-miterlimit:4;stroke-opacity:1;stroke-dasharray:none"
       d="m 77.410985,853.51153 126.490415,0 0,126.49042 -126.490415,0 z"
       id="rect3006"
       inkscape:connector-curvature="0" />
    <path
       sodipodi:type="inkscape:offset"
       inkscape:radius="0"
       inkscape:original="M 133.125 857.96875 C 132.58846 857.86444 131.81463 857.8868 130.59375 858 C 120.32829 858.95183 111.25519 863.39598 104.625 870.75 C 102.46301 873.14801 100.97582 875.17979 99.4375 877.84375 C 98.3118 879.79319 98.27123 879.90557 97.21875 882.8125 C 96.87194 883.77039 96.31286 885.11859 96 885.78125 C 95.68714 886.4439 95.20517 887.83253 94.90625 888.875 L 94.34375 890.78125 L 91.3125 892.25 C 89.63772 893.05972 87.39586 894.1223 86.34375 894.625 C 85.29164 895.1277 84.27005 895.74774 84.0625 896 C 83.67859 896.46667 83.57338 897.25214 83.78125 898 C 83.84464 898.22805 85.82448 900.1477 88.1875 902.28125 L 92.46875 906.1875 L 92.46875 907.28125 C 92.47125 908.7728 92.91261 913.31644 93.25 915.375 C 95.50691 929.14532 102.71733 940.94475 113.6875 948.875 C 116.09286 950.61381 121.17198 953.45684 123.875 954.5625 C 127.81301 956.17332 132.45676 957.45251 136.15625 957.96875 C 137.05509 958.09417 137.97566 958.23275 138.1875 958.28125 C 138.55304 958.36485 138.48946 958.62107 136.65625 962.8125 L 134.71875 967.21875 L 129.5 967.21875 L 124.28125 967.21875 L 123.78125 967.78125 C 123.12215 968.53384 123.09564 969.49817 123.71875 970.34375 L 124.15625 970.9375 L 137.5 970.9375 C 146.71834 970.9375 150.91603 970.8968 151.15625 970.75 C 151.72009 970.40545 152.04347 969.26789 151.8125 968.46875 C 151.47935 967.31612 151.18728 967.21875 148.34375 967.21875 C 146.94558 967.21875 145.8125 967.1799 145.8125 967.125 C 145.8125 967.07 146.65783 965.09963 147.6875 962.75 L 149.5625 958.46875 L 152.09375 958.125 C 170.89373 955.56202 187.33216 942.86756 195.25 924.78125 C 197.12398 920.50061 198.8125 915.09636 198.8125 913.4375 C 198.8125 912.54165 198.29768 911.75318 197.53125 911.53125 C 196.9711 911.36905 196.80023 911.44195 195.90625 912.09375 C 192.03437 914.91664 187.69362 916.50503 182.96875 916.84375 L 181 917 L 183.96875 913.6875 C 186.79431 910.52502 186.91025 910.3096 186.90625 909.59375 C 186.90325 909.02859 186.7843 908.71294 186.40625 908.28125 C 185.81994 907.61177 185.13662 907.52123 183.96875 908 C 181.8078 908.88589 177.81263 909.16003 174.96875 908.59375 C 171.62869 907.92867 167.54916 905.95554 164.34375 903.5 C 158.55846 899.06812 153.40722 892.69693 147.8125 883 C 144.49986 877.25843 141.83083 873.99171 138 871 C 136.33993 869.70355 133.52998 868.01901 131.78125 867.25 C 131.21356 867.00036 130.67525 866.7066 130.59375 866.625 C 130.51225 866.5434 131.33889 865.14243 132.4375 863.5 C 134.57612 860.30273 134.79672 859.74918 134.1875 858.6875 C 133.9611 858.29296 133.66154 858.07306 133.125 857.96875 z M 128.875 862.15625 C 128.9107 862.19695 128.22866 863.29389 127.375 864.5625 C 125.65274 867.12192 125.44866 867.74445 126 868.75 C 126.30009 869.29733 126.58676 869.45439 128.53125 870.15625 C 132.911 871.73713 136.47748 874.13205 139.75 877.71875 C 141.74391 879.90408 142.79236 881.46166 145.6875 886.4375 C 147.05249 888.78349 148.84899 891.66821 149.65625 892.84375 C 158.19198 905.27354 167.27079 911.90723 177.03125 912.84375 L 179.40625 913.0625 L 178.40625 914.125 C 175.67855 916.93809 171.03128 920.70908 167.71875 922.8125 C 157.21151 929.48448 146.7565 930.00465 139.25 924.1875 C 138.32116 923.4677 136.59125 921.84375 136.75 921.84375 C 136.7913 921.84375 137.23734 922.05361 137.75 922.3125 C 142.12348 924.52103 148.70182 924.97071 155.0625 923.5 C 156.82864 923.09164 157.11449 922.96776 157.53125 922.4375 C 158.31644 921.43849 158.09932 920.01258 157.0625 919.375 C 156.52455 919.0442 156.43527 919.03556 154.71875 919.4375 C 151.95471 920.08471 150.45498 920.28525 147.71875 920.28125 C 143.80404 920.27525 141.2263 919.72064 138.59375 918.3125 C 134.09582 915.90655 131.62696 911.98199 130.71875 905.84375 C 130.45216 904.04079 130.47971 903.82109 130.75 902.25 C 131.57983 897.42745 134.0137 893.33615 137.8125 890.46875 C 138.70926 889.79185 139.46117 889.09683 139.59375 888.78125 C 139.88836 888.08 139.71763 887.23476 139.15625 886.59375 C 138.52231 885.86987 137.57349 885.92187 136.4375 886.71875 C 127.17898 893.21347 124.30631 906.01715 129.5 917.5625 C 132.80933 924.91902 139.16555 930.2321 146.5 931.78125 C 148.52017 932.20797 153.81182 932.26347 155.875 931.875 C 162.30894 930.66374 168.36008 927.59868 175.1875 922.125 L 177.3125 920.4375 L 179.6875 920.65625 C 183.64937 921.02897 187.69707 920.46782 191.46875 918.96875 C 192.42239 918.58972 193.41757 918.12813 193.6875 917.96875 C 194.16619 917.68609 194.1775 917.71129 194.0625 918.15625 C 193.81135 919.1279 192.16035 923.19163 191.34375 924.875 C 186.65495 934.54068 178.85876 942.86102 169.65625 948.03125 C 163.87314 951.28037 158.63231 953.11333 152.15625 954.15625 C 149.83022 954.53084 141.73183 954.71121 139.34375 954.4375 C 126.29761 952.94222 115.36423 947.32366 107.4375 938.03125 C 104.03268 934.03982 101.95471 930.68392 99.84375 925.6875 C 97.12328 919.24839 95.993 913.26681 96 905.34375 C 96.0045 900.46776 96.22653 898.33729 97.125 894.125 C 98.92416 885.69003 102.54572 878.26891 107.3125 873.21875 C 112.48788 867.73569 118.88927 864.21134 126.84375 862.5 C 127.9155 862.26943 128.8393 862.11545 128.875 862.15625 z M 110.34375 882.5625 C 108.60015 882.5675 106.78349 883.46307 105.4375 885 C 103.89631 886.75982 103.3125 888.64926 103.3125 891.78125 C 103.3125 894.02175 103.65081 895.62052 104.40625 897.0625 C 105.37256 898.90697 107.20227 900.41011 109 900.8125 C 112.2863 901.54808 115.62251 899.60468 117.03125 896.15625 C 117.4427 895.14906 117.5081 894.7485 117.5625 892.46875 L 117.625 889.90625 L 117.15625 889.375 C 116.87583 889.05479 116.49741 888.84375 116.21875 888.84375 C 115.8384 888.84375 115.69889 888.69313 115.4375 888.03125 C 115.03328 887.00769 113.83009 885.65745 112.9375 885.1875 C 112.42626 884.91834 112.253 884.68837 112.25 884.34375 C 112.248 884.0856 112.01459 883.59224 111.6875 883.21875 C 111.2005 882.66266 110.96684 882.5605 110.34375 882.5625 z M 110.90625 886.5 C 111.24091 886.5717 111.52882 886.79665 111.84375 887.15625 C 112.32033 887.70044 112.4375 887.96314 112.4375 888.625 C 112.4375 889.62587 112.0203 890.3974 111.28125 890.75 C 110.59437 891.07768 110.41223 891.06314 109.71875 890.71875 C 108.19855 889.96371 108.20499 887.29006 109.71875 886.6875 C 110.19568 886.49766 110.57159 886.42826 110.90625 886.5 z M 93.375 895.53125 L 93.25 896.15625 C 93.18117 896.50509 92.99544 897.80549 92.84375 899.03125 L 92.5625 901.25 L 90.59375 899.46875 C 89.51811 898.48607 88.67155 897.6875 88.71875 897.6875 C 88.76597 897.6875 89.84481 897.18568 91.09375 896.59375 L 93.375 895.53125 z M 166 914.28125 C 165.58631 914.18965 165.22416 914.36635 164.03125 915.25 C 162.01308 916.74495 161.63555 917.09669 161.4375 917.6875 C 161.18652 918.43622 161.5113 919.60776 162.09375 919.96875 C 162.80498 920.40954 163.46586 920.34147 164.53125 919.6875 C 167.00414 918.16955 167.85801 916.97175 167.46875 915.625 C 167.25277 914.87774 166.77333 914.45252 166 914.28125 z M 143.96875 958.625 C 144.89124 958.5941 145.625 958.59895 145.625 958.65625 C 145.625 958.71355 144.79733 960.67657 143.78125 963 L 141.9375 967.21875 L 140.25 967.21875 C 139.32649 967.21875 138.58975 967.14355 138.59375 967.0625 C 138.59775 966.9815 139.42483 965.08127 140.4375 962.8125 L 142.28125 958.6875 L 143.96875 958.625 z "
       style="fill:#000000"
       id="path3035"
       d="m 133.125,857.96875 c -0.53654,-0.10431 -1.31037,-0.082 -2.53125,0.0312 -10.26546,0.95183 -19.33856,5.39598 -25.96875,12.75 -2.16199,2.39801 -3.64918,4.42979 -5.1875,7.09375 -1.1257,1.94944 -1.16627,2.06182 -2.21875,4.96875 -0.34681,0.95789 -0.90589,2.30609 -1.21875,2.96875 -0.31286,0.66265 -0.79483,2.05128 -1.09375,3.09375 l -0.5625,1.90625 -3.03125,1.46875 c -1.67478,0.80972 -3.91664,1.8723 -4.96875,2.375 -1.05211,0.5027 -2.0737,1.12274 -2.28125,1.375 -0.38391,0.46667 -0.48912,1.25214 -0.28125,2 0.06339,0.22805 2.04323,2.1477 4.40625,4.28125 l 4.28125,3.90625 0,1.09375 c 0.0025,1.49155 0.44386,6.03519 0.78125,8.09375 2.25691,13.77032 9.46733,25.56975 20.4375,33.5 2.40536,1.73881 7.48448,4.58184 10.1875,5.6875 3.93801,1.61082 8.58176,2.89001 12.28125,3.40625 0.89884,0.12542 1.81941,0.264 2.03125,0.3125 0.36554,0.0836 0.30196,0.33982 -1.53125,4.53125 l -1.9375,4.40625 -5.21875,0 -5.21875,0 -0.5,0.5625 c -0.6591,0.75259 -0.68561,1.71692 -0.0625,2.5625 l 0.4375,0.59375 13.34375,0 c 9.21834,0 13.41603,-0.0407 13.65625,-0.1875 0.56384,-0.34455 0.88722,-1.48211 0.65625,-2.28125 -0.33315,-1.15263 -0.62522,-1.25 -3.46875,-1.25 -1.39817,0 -2.53125,-0.0389 -2.53125,-0.0937 0,-0.055 0.84533,-2.02537 1.875,-4.375 l 1.875,-4.28125 2.53125,-0.34375 c 18.79998,-2.56298 35.23841,-15.25744 43.15625,-33.34375 1.87398,-4.28064 3.5625,-9.68489 3.5625,-11.34375 0,-0.89585 -0.51482,-1.68432 -1.28125,-1.90625 -0.56015,-0.1622 -0.73102,-0.0893 -1.625,0.5625 -3.87188,2.82289 -8.21263,4.41128 -12.9375,4.75 L 181,917 l 2.96875,-3.3125 c 2.82556,-3.16248 2.9415,-3.3779 2.9375,-4.09375 -0.003,-0.56516 -0.12195,-0.88081 -0.5,-1.3125 -0.58631,-0.66948 -1.26963,-0.76002 -2.4375,-0.28125 -2.16095,0.88589 -6.15612,1.16003 -9,0.59375 -3.34006,-0.66508 -7.41959,-2.63821 -10.625,-5.09375 -5.78529,-4.43188 -10.93653,-10.80307 -16.53125,-20.5 -3.31264,-5.74157 -5.98167,-9.00829 -9.8125,-12 -1.66007,-1.29645 -4.47002,-2.98099 -6.21875,-3.75 -0.56769,-0.24964 -1.106,-0.5434 -1.1875,-0.625 -0.0815,-0.0816 0.74514,-1.48257 1.84375,-3.125 2.13862,-3.19727 2.35922,-3.75082 1.75,-4.8125 -0.2264,-0.39454 -0.52596,-0.61444 -1.0625,-0.71875 z m -4.25,4.1875 c 0.0357,0.0407 -0.64634,1.13764 -1.5,2.40625 -1.72226,2.55942 -1.92634,3.18195 -1.375,4.1875 0.30009,0.54733 0.58676,0.70439 2.53125,1.40625 4.37975,1.58088 7.94623,3.9758 11.21875,7.5625 1.99391,2.18533 3.04236,3.74291 5.9375,8.71875 1.36499,2.34599 3.16149,5.23071 3.96875,6.40625 8.53573,12.42979 17.61454,19.06348 27.375,20 l 2.375,0.21875 -1,1.0625 c -2.7277,2.81309 -7.37497,6.58408 -10.6875,8.6875 -10.50724,6.67198 -20.96225,7.19215 -28.46875,1.375 -0.92884,-0.7198 -2.65875,-2.34375 -2.5,-2.34375 0.0413,0 0.48734,0.20986 1,0.46875 4.37348,2.20853 10.95182,2.65821 17.3125,1.1875 1.76614,-0.40836 2.05199,-0.53224 2.46875,-1.0625 0.78519,-0.99901 0.56807,-2.42492 -0.46875,-3.0625 -0.53795,-0.3308 -0.62723,-0.33944 -2.34375,0.0625 -2.76404,0.64721 -4.26377,0.84775 -7,0.84375 -3.91471,-0.006 -6.49245,-0.56061 -9.125,-1.96875 -4.49793,-2.40595 -6.96679,-6.33051 -7.875,-12.46875 -0.26659,-1.80296 -0.23904,-2.02266 0.0312,-3.59375 0.82983,-4.82255 3.2637,-8.91385 7.0625,-11.78125 0.89676,-0.6769 1.64867,-1.37192 1.78125,-1.6875 0.29461,-0.70125 0.12388,-1.54649 -0.4375,-2.1875 -0.63394,-0.72388 -1.58276,-0.67188 -2.71875,0.125 -9.25852,6.49472 -12.13119,19.2984 -6.9375,30.84375 3.30933,7.35652 9.66555,12.6696 17,14.21875 2.02017,0.42672 7.31182,0.48222 9.375,0.0937 6.43394,-1.21126 12.48508,-4.27632 19.3125,-9.75 l 2.125,-1.6875 2.375,0.21875 c 3.96187,0.37272 8.00957,-0.18843 11.78125,-1.6875 0.95364,-0.37903 1.94882,-0.84062 2.21875,-1 0.47869,-0.28266 0.49,-0.25746 0.375,0.1875 -0.25115,0.97165 -1.90215,5.03538 -2.71875,6.71875 -4.6888,9.66568 -12.48499,17.98602 -21.6875,23.15625 -5.78311,3.24912 -11.02394,5.08208 -17.5,6.125 -2.32603,0.37459 -10.42442,0.55496 -12.8125,0.28125 -13.04614,-1.49528 -23.97952,-7.11384 -31.90625,-16.40625 -3.40482,-3.99143 -5.48279,-7.34733 -7.59375,-12.34375 C 97.12328,919.24839 95.993,913.26681 96,905.34375 c 0.0045,-4.87599 0.22653,-7.00646 1.125,-11.21875 1.79916,-8.43497 5.42072,-15.85609 10.1875,-20.90625 5.17538,-5.48306 11.57677,-9.00741 19.53125,-10.71875 1.07175,-0.23057 1.99555,-0.38455 2.03125,-0.34375 z m -18.53125,20.40625 c -1.7436,0.005 -3.56026,0.90057 -4.90625,2.4375 -1.54119,1.75982 -2.125,3.64926 -2.125,6.78125 0,2.2405 0.33831,3.83927 1.09375,5.28125 0.96631,1.84447 2.79602,3.34761 4.59375,3.75 3.2863,0.73558 6.62251,-1.20782 8.03125,-4.65625 0.41145,-1.00719 0.47685,-1.40775 0.53125,-3.6875 l 0.0625,-2.5625 -0.46875,-0.53125 c -0.28042,-0.32021 -0.65884,-0.53125 -0.9375,-0.53125 -0.38035,0 -0.51986,-0.15062 -0.78125,-0.8125 -0.40422,-1.02356 -1.60741,-2.3738 -2.5,-2.84375 -0.51124,-0.26916 -0.6845,-0.49913 -0.6875,-0.84375 -0.002,-0.25815 -0.23541,-0.75151 -0.5625,-1.125 -0.487,-0.55609 -0.72066,-0.65825 -1.34375,-0.65625 z m 0.5625,3.9375 c 0.33466,0.0717 0.62257,0.29665 0.9375,0.65625 0.47658,0.54419 0.59375,0.80689 0.59375,1.46875 0,1.00087 -0.4172,1.7724 -1.15625,2.125 -0.68688,0.32768 -0.86902,0.31314 -1.5625,-0.0312 -1.5202,-0.75504 -1.51376,-3.42869 0,-4.03125 0.47693,-0.18984 0.85284,-0.25924 1.1875,-0.1875 z m -17.53125,9.03125 -0.125,0.625 c -0.06883,0.34884 -0.25456,1.64924 -0.40625,2.875 L 92.5625,901.25 90.59375,899.46875 c -1.07564,-0.98268 -1.9222,-1.78125 -1.875,-1.78125 0.04722,0 1.12606,-0.50182 2.375,-1.09375 l 2.28125,-1.0625 z m 72.625,18.75 c -0.41369,-0.0916 -0.77584,0.0851 -1.96875,0.96875 -2.01817,1.49495 -2.3957,1.84669 -2.59375,2.4375 -0.25098,0.74872 0.0738,1.92026 0.65625,2.28125 0.71123,0.44079 1.37211,0.37272 2.4375,-0.28125 2.47289,-1.51795 3.32676,-2.71575 2.9375,-4.0625 -0.21598,-0.74726 -0.69542,-1.17248 -1.46875,-1.34375 z M 143.96875,958.625 c 0.92249,-0.0309 1.65625,-0.0261 1.65625,0.0312 0,0.0573 -0.82767,2.02032 -1.84375,4.34375 l -1.84375,4.21875 -1.6875,0 c -0.92351,0 -1.66025,-0.0752 -1.65625,-0.15625 0.004,-0.081 0.83108,-1.98123 1.84375,-4.25 l 1.84375,-4.125 1.6875,-0.0625 z" />
  </g>
</svg>
